<svg width="1016" height="157" viewBox="0 0 1016 157" fill="none" xmlns="http://www.w3.org/2000/svg">
<path d="M48 154H0.600002V0.399987H50.1C65 0.399987 77.75 3.47499 88.35 9.62499C98.95 15.725 107.075 24.5 112.725 35.95C118.375 47.35 121.2 61 121.2 76.9C121.2 92.9 118.35 106.675 112.65 118.225C106.95 129.725 98.65 138.575 87.75 144.775C76.85 150.925 63.6 154 48 154ZM19.2 137.5H46.8C59.5 137.5 70.025 135.05 78.375 130.15C86.725 125.25 92.95 118.275 97.05 109.225C101.15 100.175 103.2 89.4 103.2 76.9C103.2 64.5 101.175 53.825 97.125 44.875C93.075 35.875 87.025 28.975 78.975 24.175C70.925 19.325 60.9 16.9 48.9 16.9H19.2V137.5ZM196.8 156.4C186.4 156.4 177.275 153.925 169.425 148.975C161.625 144.025 155.525 137.1 151.125 128.2C146.775 119.3 144.6 108.9 144.6 97C144.6 85 146.775 74.525 151.125 65.575C155.525 56.625 161.625 49.675 169.425 44.725C177.275 39.775 186.4 37.3 196.8 37.3C207.2 37.3 216.3 39.775 224.1 44.725C231.95 49.675 238.05 56.625 242.4 65.575C246.8 74.525 249 85 249 97C249 108.9 246.8 119.3 242.4 128.2C238.05 137.1 231.95 144.025 224.1 148.975C216.3 153.925 207.2 156.4 196.8 156.4ZM196.8 140.5C204.7 140.5 211.2 138.475 216.3 134.425C221.4 130.375 225.175 125.05 227.625 118.45C230.075 111.85 231.3 104.7 231.3 97C231.3 89.3 230.075 82.125 227.625 75.475C225.175 68.825 221.4 63.45 216.3 59.35C211.2 55.25 204.7 53.2 196.8 53.2C188.9 53.2 182.4 55.25 177.3 59.35C172.2 63.45 168.425 68.825 165.975 75.475C163.525 82.125 162.3 89.3 162.3 97C162.3 104.7 163.525 111.85 165.975 118.45C168.425 125.05 172.2 130.375 177.3 134.425C182.4 138.475 188.9 140.5 196.8 140.5ZM322.819 156.4C312.019 156.4 302.719 153.85 294.919 148.75C287.119 143.65 281.119 136.625 276.919 127.675C272.719 118.725 270.619 108.5 270.619 97C270.619 85.3 272.769 74.975 277.069 66.025C281.419 57.025 287.469 50 295.219 44.95C303.019 39.85 312.119 37.3 322.519 37.3C330.619 37.3 337.919 38.8 344.419 41.8C350.919 44.8 356.244 49 360.394 54.4C364.544 59.8 367.119 66.1 368.119 73.3H350.419C349.069 68.05 346.069 63.4 341.419 59.35C336.819 55.25 330.619 53.2 322.819 53.2C315.919 53.2 309.869 55 304.669 58.6C299.519 62.15 295.494 67.175 292.594 73.675C289.744 80.125 288.319 87.7 288.319 96.4C288.319 105.3 289.719 113.05 292.519 119.65C295.369 126.25 299.369 131.375 304.519 135.025C309.719 138.675 315.819 140.5 322.819 140.5C327.419 140.5 331.594 139.7 335.344 138.1C339.094 136.5 342.269 134.2 344.869 131.2C347.469 128.2 349.319 124.6 350.419 120.4H368.119C367.119 127.2 364.644 133.325 360.694 138.775C356.794 144.175 351.619 148.475 345.169 151.675C338.769 154.825 331.319 156.4 322.819 156.4ZM466.594 106.9V38.8H484.294V154H466.594V134.5H465.394C462.694 140.35 458.494 145.325 452.794 149.425C447.094 153.475 439.894 155.5 431.194 155.5C423.994 155.5 417.594 153.925 411.994 150.775C406.394 147.575 401.994 142.775 398.794 136.375C395.594 129.925 393.994 121.8 393.994 112V38.8H411.694V110.8C411.694 119.2 414.044 125.9 418.744 130.9C423.494 135.9 429.544 138.4 436.894 138.4C441.294 138.4 445.769 137.275 450.319 135.025C454.919 132.775 458.769 129.325 461.869 124.675C465.019 120.025 466.594 114.1 466.594 106.9Z" fill="white"/>
<path d="M513.863 0.399987H553.913L596.213 103.6H598.013L640.313 0.399987H680.363V154H648.863V54.025H647.588L607.838 153.25H586.388L546.638 53.65H545.363V154H513.863V0.399987ZM739.369 156.175C732.019 156.175 725.469 154.9 719.719 152.35C713.969 149.75 709.419 145.925 706.069 140.875C702.769 135.775 701.119 129.425 701.119 121.825C701.119 115.425 702.294 110.05 704.644 105.7C706.994 101.35 710.194 97.85 714.244 95.2C718.294 92.55 722.894 90.55 728.044 89.2C733.244 87.85 738.694 86.9 744.394 86.35C751.094 85.65 756.494 85 760.594 84.4C764.694 83.75 767.669 82.8 769.519 81.55C771.369 80.3 772.294 78.45 772.294 76V75.55C772.294 70.8 770.794 67.125 767.794 64.525C764.844 61.925 760.644 60.625 755.194 60.625C749.444 60.625 744.869 61.9 741.469 64.45C738.069 66.95 735.819 70.1 734.719 73.9L705.169 71.5C706.669 64.5 709.619 58.45 714.019 53.35C718.419 48.2 724.094 44.25 731.044 41.5C738.044 38.7 746.144 37.3 755.344 37.3C761.744 37.3 767.869 38.05 773.719 39.55C779.619 41.05 784.844 43.375 789.394 46.525C793.994 49.675 797.619 53.725 800.269 58.675C802.919 63.575 804.244 69.45 804.244 76.3V154H773.944V138.025H773.044C771.194 141.625 768.719 144.8 765.619 147.55C762.519 150.25 758.794 152.375 754.444 153.925C750.094 155.425 745.069 156.175 739.369 156.175ZM748.519 134.125C753.219 134.125 757.369 133.2 760.969 131.35C764.569 129.45 767.394 126.9 769.444 123.7C771.494 120.5 772.519 116.875 772.519 112.825V100.6C771.519 101.25 770.144 101.85 768.394 102.4C766.694 102.9 764.769 103.375 762.619 103.825C760.469 104.225 758.319 104.6 756.169 104.95C754.019 105.25 752.069 105.525 750.319 105.775C746.569 106.325 743.294 107.2 740.494 108.4C737.694 109.6 735.519 111.225 733.969 113.275C732.419 115.275 731.644 117.775 731.644 120.775C731.644 125.125 733.219 128.45 736.369 130.75C739.569 133 743.619 134.125 748.519 134.125ZM890.306 38.8V62.8H820.931V38.8H890.306ZM836.681 11.2H868.631V118.6C868.631 121.55 869.081 123.85 869.981 125.5C870.881 127.1 872.131 128.225 873.731 128.875C875.381 129.525 877.281 129.85 879.431 129.85C880.931 129.85 882.431 129.725 883.931 129.475C885.431 129.175 886.581 128.95 887.381 128.8L892.406 152.575C890.806 153.075 888.556 153.65 885.656 154.3C882.756 155 879.231 155.425 875.081 155.575C867.381 155.875 860.631 154.85 854.831 152.5C849.081 150.15 844.606 146.5 841.406 141.55C838.206 136.6 836.631 130.35 836.681 122.8V11.2ZM962.381 156.25C950.531 156.25 940.331 153.85 931.781 149.05C923.281 144.2 916.731 137.35 912.131 128.5C907.531 119.6 905.231 109.075 905.231 96.925C905.231 85.075 907.531 74.675 912.131 65.725C916.731 56.775 923.206 49.8 931.556 44.8C939.956 39.8 949.806 37.3 961.106 37.3C968.706 37.3 975.781 38.525 982.331 40.975C988.931 43.375 994.681 47 999.581 51.85C1004.53 56.7 1008.38 62.8 1011.13 70.15C1013.88 77.45 1015.26 86 1015.26 95.8V104.575H917.981V84.775H985.181C985.181 80.175 984.181 76.1 982.181 72.55C980.181 69 977.406 66.225 973.856 64.225C970.356 62.175 966.281 61.15 961.631 61.15C956.781 61.15 952.481 62.275 948.731 64.525C945.031 66.725 942.131 69.7 940.031 73.45C937.931 77.15 936.856 81.275 936.806 85.825V104.65C936.806 110.35 937.856 115.275 939.956 119.425C942.106 123.575 945.131 126.775 949.031 129.025C952.931 131.275 957.556 132.4 962.906 132.4C966.456 132.4 969.706 131.9 972.656 130.9C975.606 129.9 978.131 128.4 980.231 126.4C982.331 124.4 983.931 121.95 985.031 119.05L1014.58 121C1013.08 128.1 1010.01 134.3 1005.36 139.6C1000.76 144.85 994.806 148.95 987.506 151.9C980.256 154.8 971.881 156.25 962.381 156.25Z" fill="#4770FF"/>
</svg>
